# xmcd
#
# Track frame offsets: 
#        150
#        23973
#        48267
#        72124
#        90067
#        116795
#        134405
#        159077
#        170546
#        196251
#        206533
#        232878
#        254709
#        269110
#        286567
#        301773
#
# Disc length: 4215 seconds
#
# Revision: 4
# Processed by: cddbd v1.5.2PL0 Copyright (c) Steve Scherf et al.
# Submitted via: ExactAudioCopy v0.95a4
#
DISCID=d4107510
DTITLE=Various Artist - Wittstock statt Woodstock
DYEAR=2012
DGENRE=Blues
TTITLE0=Amiga Blues Band - Little Red Rooster
TTITLE1=Hansi Biebl - Morgen Blues
TTITLE2=Renft - Mama
TTITLE3=Stefan Diestelmann - Blues von der guten Erziehung
TTITLE4=Monokel - Das Monster vom Schilkinsee oder Der Bär, der Frohsi
TTITLE4=nn bringt
TTITLE5=Jonathan Blues Band - Die Geschichte vom kleinen Peter und dem
TTITLE5=Rock 'n' Roll
TTITLE6=Brot and Salz - Blues vom Abschied
TTITLE7=Jüergen Kerth - Blues für Jimi
TTITLE8=Engerling - Narkose Blues
TTITLE9=Zenit - Der Langschläferblues
TTITLE10=Omega - Untreue Freunde (Hütlen barátok)
TTITLE11=Vital - Blues von der Flüchtigkeit der Zeit
TTITLE12=Modern Soul Band - Novemberblues
TTITLE13=Centrum - Blues für Städte
TTITLE14=Panta Rhei - Blues für John Henry
TTITLE15=Amiga Blues Band - Not Fade Away
EXTD=Year: 2012
EXTT0=
EXTT1=
EXTT2=
EXTT3=
EXTT4=
EXTT5=
EXTT6=
EXTT7=
EXTT8=
EXTT9=
EXTT10=
EXTT11=
EXTT12=
EXTT13=
EXTT14=
EXTT15=
PLAYORDER=
